{
  "accessors": [
    {
      "bufferView": 2,
      "componentType": 5126,
      "count": 4632,
      "max": [
        3.0966761112213135,
        1.8367489576339722,
        1.2215590476989746
      ],
      "min": [
        -3.096708059310913,
        -1.0582760572433472,
        -4.19260311126709
      ],
      "type": "VEC3"
    },
    {
      "bufferView": 2,
      "byteOffset": 55584,
      "componentType": 5126,
      "count": 4632,
      "max": [
        0.9999989867210388,
        0.9997616410255432,
        0.9908199310302734
      ],
      "min": [
        -0.999998927116394,
        -0.9999678134918213,
        -0.9999999403953552
      ],
      "type": "VEC3"
    },
    {
      "bufferView": 3,
      "componentType": 5126,
      "count": 4632,
      "max": [
        1.0,
        0.9999990463256836,
        0.999809741973877,
        1.0
      ],
      "min": [
        -1.0,
        -0.9999990463256836,
        -0.9997236728668213,
        -1.0
      ],
      "type": "VEC4"
    },
    {
      "bufferView": 1,
      "componentType": 5126,
      "count": 4632,
      "max": [
        0.9970146417617798,
        0.9988245368003845
      ],
      "min": [
        0.001799119170755148,
        0.004041592590510845
      ],
      "type": "VEC2"
    },
    {
      "bufferView": 0,
      "componentType": 5125,
      "count": 21858,
      "type": "SCALAR"
    },
    {
      "bufferView": 2,
      "byteOffset": 111168,
      "componentType": 5126,
      "count": 159,
      "max": [
        -0.6988939642906189,
        1.705504059791565,
        0.849374532699585
      ],
      "min": [
        -1.7151000499725342,
        0.9750242233276367,
        -0.6879920363426208
      ],
      "type": "VEC3"
    },
    {
      "bufferView": 2,
      "byteOffset": 113076,
      "componentType": 5126,
      "count": 159,
      "max": [
        0.9999982714653015,
        0.9818146228790283,
        0.9873654842376709
      ],
      "min": [
        -0.9491367340087891,
        -0.9916349649429321,
        -0.9500479698181152
      ],
      "type": "VEC3"
    },
    {
      "bufferView": 3,
      "byteOffset": 74112,
      "componentType": 5126,
      "count": 159,
      "max": [
        0.979167640209198,
        0.8503868579864502,
        0.9875068664550781,
        1.0
      ],
      "min": [
        -0.998984158039093,
        -0.9931516647338867,
        -0.69802325963974,
        1.0
      ],
      "type": "VEC4"
    },
    {
      "bufferView": 1,
      "byteOffset": 37056,
      "componentType": 5126,
      "count": 159,
      "max": [
        0.6521825194358826,
        0.2152252346277237
      ],
      "min": [
        0.34695863723754883,
        0.14355705678462982
      ],
      "type": "VEC2"
    },
    {
      "bufferView": 0,
      "byteOffset": 87432,
      "componentType": 5125,
      "count": 798,
      "type": "SCALAR"
    }
  ],
  "asset": {
    "extras": {
      "author": "Ageia (https://sketchfab.com/dasoong15)",
      "license": "CC-BY-4.0 (http://creativecommons.org/licenses/by/4.0/)",
      "source": "https://sketchfab.com/3d-models/spaceman-483cac9ed7644f45b1a5230c4a18b99d",
      "title": "SpaceMan"
    },
    "generator": "Sketchfab-12.68.0",
    "version": "2.0"
  },
  "bufferViews": [
    {
      "buffer": 0,
      "byteLength": 90624,
      "name": "floatBufferViews",
      "target": 34963
    },
    {
      "buffer": 0,
      "byteLength": 38328,
      "byteOffset": 90624,
      "byteStride": 8,
      "name": "floatBufferViews",
      "target": 34962
    },
    {
      "buffer": 0,
      "byteLength": 114984,
      "byteOffset": 128952,
      "byteStride": 12,
      "name": "floatBufferViews",
      "target": 34962
    },
    {
      "buffer": 0,
      "byteLength": 76656,
      "byteOffset": 243936,
      "byteStride": 16,
      "name": "floatBufferViews",
      "target": 34962
    }
  ],
  "buffers": [
    {
      "byteLength": 320592,
      "uri": "scene.bin"
    }
  ],
  "images": [
    {
      "uri": "textures/default_baseColor.png"
    },
    {
      "uri": "textures/default_metallicRoughness.png"
    },
    {
      "uri": "textures/default_emissive.png"
    },
    {
      "uri": "textures/default_normal.png"
    },
    {
      "uri": "textures/default_0_normal.png"
    }
  ],
  "materials": [
    {
      "doubleSided": true,
      "emissiveFactor": [
        1.0,
        1.0,
        1.0
      ],
      "emissiveTexture": {
        "index": 2
      },
      "name": "default",
      "normalTexture": {
        "index": 3
      },
      "occlusionTexture": {
        "index": 1
      },
      "pbrMetallicRoughness": {
        "baseColorTexture": {
          "index": 0
        },
        "metallicRoughnessTexture": {
          "index": 1
        }
      }
    },
    {
      "doubleSided": true,
      "name": "default_0",
      "normalTexture": {
        "index": 4
      },
      "occlusionTexture": {
        "index": 1
      },
      "pbrMetallicRoughness": {
        "baseColorTexture": {
          "index": 0
        },
        "metallicRoughnessTexture": {
          "index": 1
        }
      }
    }
  ],
  "meshes": [
    {
      "name": "RetopoGroup1_default_0",
      "primitives": [
        {
          "attributes": {
            "NORMAL": 1,
            "POSITION": 0,
            "TANGENT": 2,
            "TEXCOORD_0": 3
          },
          "indices": 4,
          "material": 0,
          "mode": 4
        }
      ]
    },
    {
      "name": "ZBrush_defualt_group_default_0",
      "primitives": [
        {
          "attributes": {
            "NORMAL": 6,
            "POSITION": 5,
            "TANGENT": 7,
            "TEXCOORD_0": 8
          },
          "indices": 9,
          "material": 1,
          "mode": 4
        }
      ]
    }
  ],
  "nodes": [
    {
      "children": [
        1
      ],
      "matrix": [
        1.0,
        0.0,
        0.0,
        0.0,
        0.0,
        2.220446049250313e-16,
        -1.0,
        0.0,
        0.0,
        1.0,
        2.220446049250313e-16,
        0.0,
        0.0,
        0.0,
        0.0,
        1.0
      ],
      "name": "Sketchfab_model"
    },
    {
      "children": [
        2
      ],
      "matrix": [
        1.0,
        0.0,
        0.0,
        0.0,
        0.0,
        0.0,
        1.0,
        0.0,
        0.0,
        -1.0,
        0.0,
        0.0,
        0.0,
        0.0,
        0.0,
        1.0
      ],
      "name": "SpaceMan_Color.FBX"
    },
    {
      "children": [
        3,
        6
      ],
      "name": "RootNode"
    },
    {
      "children": [
        4
      ],
      "matrix": [
        1.0,
        0.0,
        0.0,
        0.0,
        0.0,
        2.220446049250313e-16,
        -1.0,
        0.0,
        0.0,
        1.0,
        2.220446049250313e-16,
        0.0,
        0.0,
        57.515220642089844,
        2.527323886170052e-06,
        1.0
      ],
      "name": "RetopoGroup1"
    },
    {
      "children": [
        5
      ],
      "matrix": [
        13.718130111694336,
        0.0,
        -0.0,
        0.0,
        0.0,
        13.718130111694336,
        0.0,
        0.0,
        0.0,
        0.0,
        13.718130111694336,
        0.0,
        0.0,
        0.0,
        0.0,
        1.0
      ],
      "name": "Object_4"
    },
    {
      "mesh": 0,
      "name": "RetopoGroup1_default_0"
    },
    {
      "children": [
        7
      ],
      "matrix": [
        1.0,
        0.0,
        0.0,
        0.0,
        0.0,
        2.220446049250313e-16,
        -1.0,
        0.0,
        0.0,
        1.0,
        2.220446049250313e-16,
        0.0,
        0.0,
        57.56941604614258,
        2.5164390535792336e-06,
        1.0
      ],
      "name": "ZBrush_defualt_group"
    },
    {
      "children": [
        8
      ],
      "matrix": [
        13.9732027053833,
        0.0,
        -0.0,
        0.0,
        0.0,
        13.9732027053833,
        0.0,
        0.0,
        0.0,
        0.0,
        13.9732027053833,
        0.0,
        0.0,
        0.0,
        0.0,
        1.0
      ],
      "name": "Object_7"
    },
    {
      "mesh": 1,
      "name": "ZBrush_defualt_group_default_0"
    }
  ],
  "samplers": [
    {
      "magFilter": 9729,
      "minFilter": 9987,
      "wrapS": 10497,
      "wrapT": 10497
    }
  ],
  "scene": 0,
  "scenes": [
    {
      "name": "Sketchfab_Scene",
      "nodes": [
        0
      ]
    }
  ],
  "textures": [
    {
      "sampler": 0,
      "source": 0
    },
    {
      "sampler": 0,
      "source": 1
    },
    {
      "sampler": 0,
      "source": 2
    },
    {
      "sampler": 0,
      "source": 3
    },
    {
      "sampler": 0,
      "source": 4
    }
  ]
}
